<svg width="18" height="18" viewBox="0 0 18 18" fill="none" xmlns="http://www.w3.org/2000/svg">
<path d="M9.03076 10.0637C11.4023 10.0831 13.3288 8.15666 13.3093 5.78187C13.2898 3.51103 11.3698 1.59105 9.10223 1.57155C6.73068 1.55206 4.8042 3.47854 4.82369 5.85334C4.84319 8.12418 6.76317 10.0442 9.03076 10.0637ZM8.91056 3.43306C10.3497 3.34209 11.5388 4.53112 11.4478 5.97354C11.3731 7.16256 10.4115 8.12418 9.22243 8.20215C7.78326 8.29311 6.59423 7.10409 6.6852 5.66166C6.75992 4.47264 7.72153 3.51103 8.91056 3.43306Z" fill="#73738D"/>
<path d="M9.06604 10.5512C7.6756 10.5512 6.4216 9.96319 5.5412 9.02432C5.47948 8.95934 5.37227 8.96909 5.32679 9.04706L2.86428 13.3581C2.76357 13.5368 2.89027 13.7577 3.09818 13.7577H5.70039C5.7946 13.7577 5.88232 13.8064 5.93105 13.8876L7.19804 15.996C7.30849 16.1812 7.58139 16.165 7.67235 15.97L9.06929 12.8968L10.0861 10.6584C10.1316 10.561 10.0471 10.4537 9.93994 10.4732C9.65405 10.522 9.36492 10.5512 9.06604 10.5512Z" fill="#73738D"/>
<path d="M12.5915 9.02058C12.1171 9.52413 11.5389 9.93022 10.8859 10.1934C10.8534 10.2064 10.8274 10.2291 10.8144 10.2616L9.36225 13.4356C9.34601 13.4713 9.34601 13.5103 9.36225 13.546L10.4636 15.9663C10.5513 16.1612 10.8274 16.1775 10.9379 15.9923L12.2049 13.8839C12.2536 13.8027 12.3413 13.7539 12.4355 13.7539H15.0377C15.2424 13.7539 15.3723 13.533 15.2716 13.3543L12.8091 9.04007C12.7604 8.9686 12.6532 8.95561 12.5915 9.02058Z" fill="#73738D"/>
</svg>
