<svg width="67" height="63" viewBox="0 0 67 63" fill="none" xmlns="http://www.w3.org/2000/svg">
<path d="M2.07205 62.3119C2.79931 62.3119 3.38886 61.7223 3.38886 60.9951C3.38886 60.2678 2.79931 59.6783 2.07205 59.6783C1.3448 59.6783 0.755249 60.2678 0.755249 60.9951C0.755249 61.7223 1.3448 62.3119 2.07205 62.3119Z" fill="#64CCE3"/>
<path d="M2.07205 50.5299C2.79931 50.5299 3.38886 49.9404 3.38886 49.2131C3.38886 48.4859 2.79931 47.8963 2.07205 47.8963C1.3448 47.8963 0.755249 48.4859 0.755249 49.2131C0.755249 49.9404 1.3448 50.5299 2.07205 50.5299Z" fill="#64CCE3"/>
<path d="M2.07205 38.748C2.79931 38.748 3.38886 38.1584 3.38886 37.4312C3.38886 36.7039 2.79931 36.1144 2.07205 36.1144C1.3448 36.1144 0.755249 36.7039 0.755249 37.4312C0.755249 38.1584 1.3448 38.748 2.07205 38.748Z" fill="#64CCE3"/>
<path d="M2.07205 26.8961C2.79931 26.8961 3.38886 26.3066 3.38886 25.5793C3.38886 24.8521 2.79931 24.2625 2.07205 24.2625C1.3448 24.2625 0.755249 24.8521 0.755249 25.5793C0.755249 26.3066 1.3448 26.8961 2.07205 26.8961Z" fill="#64CCE3"/>
<path d="M2.07205 15.1142C2.79931 15.1142 3.38886 14.5246 3.38886 13.7974C3.38886 13.0701 2.79931 12.4806 2.07205 12.4806C1.3448 12.4806 0.755249 13.0701 0.755249 13.7974C0.755249 14.5246 1.3448 15.1142 2.07205 15.1142Z" fill="#64CCE3"/>
<path d="M2.07175 3.26333C2.799 3.26333 3.38855 2.67378 3.38855 1.94652C3.38855 1.21927 2.799 0.629719 2.07175 0.629719C1.3445 0.629719 0.754944 1.21927 0.754944 1.94652C0.754944 2.67378 1.3445 3.26333 2.07175 3.26333Z" fill="#64CCE3"/>
<path d="M65.6238 62.3118C66.3511 62.3118 66.9407 61.7222 66.9407 60.995C66.9407 60.2677 66.3511 59.6782 65.6238 59.6782C64.8966 59.6782 64.307 60.2677 64.307 60.995C64.307 61.7222 64.8966 62.3118 65.6238 62.3118Z" fill="#64CCE3"/>
<path d="M65.6238 50.5299C66.3511 50.5299 66.9407 49.9403 66.9407 49.213C66.9407 48.4858 66.3511 47.8962 65.6238 47.8962C64.8966 47.8962 64.307 48.4858 64.307 49.213C64.307 49.9403 64.8966 50.5299 65.6238 50.5299Z" fill="#64CCE3"/>
<path d="M65.6238 38.7479C66.3511 38.7479 66.9407 38.1584 66.9407 37.4311C66.9407 36.7038 66.3511 36.1143 65.6238 36.1143C64.8966 36.1143 64.307 36.7038 64.307 37.4311C64.307 38.1584 64.8966 38.7479 65.6238 38.7479Z" fill="#64CCE3"/>
<path d="M65.6238 26.8961C66.3511 26.8961 66.9407 26.3065 66.9407 25.5793C66.9407 24.852 66.3511 24.2625 65.6238 24.2625C64.8966 24.2625 64.307 24.852 64.307 25.5793C64.307 26.3065 64.8966 26.8961 65.6238 26.8961Z" fill="#64CCE3"/>
<path d="M65.6238 15.1141C66.3511 15.1141 66.9407 14.5246 66.9407 13.7973C66.9407 13.0701 66.3511 12.4805 65.6238 12.4805C64.8966 12.4805 64.307 13.0701 64.307 13.7973C64.307 14.5246 64.8966 15.1141 65.6238 15.1141Z" fill="#64CCE3"/>
<path d="M65.6238 3.26326C66.3511 3.26326 66.9407 2.67371 66.9407 1.94646C66.9407 1.21921 66.3511 0.629654 65.6238 0.629654C64.8966 0.629654 64.307 1.21921 64.307 1.94646C64.307 2.67371 64.8966 3.26326 65.6238 3.26326Z" fill="#64CCE3"/>
<path d="M40.1893 62.3118C40.9166 62.3118 41.5061 61.7222 41.5061 60.995C41.5061 60.2677 40.9166 59.6782 40.1893 59.6782C39.4621 59.6782 38.8725 60.2677 38.8725 60.995C38.8725 61.7222 39.4621 62.3118 40.1893 62.3118Z" fill="#64CCE3"/>
<path d="M40.1893 50.5299C40.9166 50.5299 41.5061 49.9403 41.5061 49.213C41.5061 48.4858 40.9166 47.8962 40.1893 47.8962C39.4621 47.8962 38.8725 48.4858 38.8725 49.213C38.8725 49.9403 39.4621 50.5299 40.1893 50.5299Z" fill="#64CCE3"/>
<path d="M40.1893 38.7479C40.9166 38.7479 41.5061 38.1584 41.5061 37.4311C41.5061 36.7038 40.9166 36.1143 40.1893 36.1143C39.4621 36.1143 38.8725 36.7038 38.8725 37.4311C38.8725 38.1584 39.4621 38.7479 40.1893 38.7479Z" fill="#64CCE3"/>
<path d="M40.1893 26.8961C40.9166 26.8961 41.5061 26.3065 41.5061 25.5793C41.5061 24.852 40.9166 24.2625 40.1893 24.2625C39.4621 24.2625 38.8725 24.852 38.8725 25.5793C38.8725 26.3065 39.4621 26.8961 40.1893 26.8961Z" fill="#64CCE3"/>
<path d="M40.1893 15.1141C40.9166 15.1141 41.5061 14.5246 41.5061 13.7973C41.5061 13.0701 40.9166 12.4805 40.1893 12.4805C39.4621 12.4805 38.8725 13.0701 38.8725 13.7973C38.8725 14.5246 39.4621 15.1141 40.1893 15.1141Z" fill="#64CCE3"/>
<path d="M40.1893 3.26326C40.9166 3.26326 41.5061 2.67371 41.5061 1.94646C41.5061 1.21921 40.9166 0.629654 40.1893 0.629654C39.4621 0.629654 38.8725 1.21921 38.8725 1.94646C38.8725 2.67371 39.4621 3.26326 40.1893 3.26326Z" fill="#64CCE3"/>
<path d="M27.5051 62.3118C28.2323 62.3118 28.8219 61.7222 28.8219 60.995C28.8219 60.2677 28.2323 59.6782 27.5051 59.6782C26.7778 59.6782 26.1883 60.2677 26.1883 60.995C26.1883 61.7222 26.7778 62.3118 27.5051 62.3118Z" fill="#64CCE3"/>
<path d="M27.5051 50.5299C28.2323 50.5299 28.8219 49.9403 28.8219 49.213C28.8219 48.4858 28.2323 47.8962 27.5051 47.8962C26.7778 47.8962 26.1883 48.4858 26.1883 49.213C26.1883 49.9403 26.7778 50.5299 27.5051 50.5299Z" fill="#64CCE3"/>
<path d="M27.5051 38.7479C28.2323 38.7479 28.8219 38.1584 28.8219 37.4311C28.8219 36.7038 28.2323 36.1143 27.5051 36.1143C26.7778 36.1143 26.1883 36.7038 26.1883 37.4311C26.1883 38.1584 26.7778 38.7479 27.5051 38.7479Z" fill="#64CCE3"/>
<path d="M27.5051 26.8961C28.2323 26.8961 28.8219 26.3065 28.8219 25.5793C28.8219 24.852 28.2323 24.2625 27.5051 24.2625C26.7778 24.2625 26.1883 24.852 26.1883 25.5793C26.1883 26.3065 26.7778 26.8961 27.5051 26.8961Z" fill="#64CCE3"/>
<path d="M27.5051 15.1141C28.2323 15.1141 28.8219 14.5246 28.8219 13.7973C28.8219 13.0701 28.2323 12.4805 27.5051 12.4805C26.7778 12.4805 26.1883 13.0701 26.1883 13.7973C26.1883 14.5246 26.7778 15.1141 27.5051 15.1141Z" fill="#64CCE3"/>
<path d="M27.5051 3.26326C28.2323 3.26326 28.8219 2.67371 28.8219 1.94646C28.8219 1.21921 28.2323 0.629654 27.5051 0.629654C26.7778 0.629654 26.1883 1.21921 26.1883 1.94646C26.1883 2.67371 26.7778 3.26326 27.5051 3.26326Z" fill="#64CCE3"/>
<path d="M52.942 62.3118C53.6692 62.3118 54.2588 61.7222 54.2588 60.995C54.2588 60.2677 53.6692 59.6782 52.942 59.6782C52.2147 59.6782 51.6252 60.2677 51.6252 60.995C51.6252 61.7222 52.2147 62.3118 52.942 62.3118Z" fill="#64CCE3"/>
<path d="M52.942 50.5299C53.6692 50.5299 54.2588 49.9403 54.2588 49.213C54.2588 48.4858 53.6692 47.8962 52.942 47.8962C52.2147 47.8962 51.6252 48.4858 51.6252 49.213C51.6252 49.9403 52.2147 50.5299 52.942 50.5299Z" fill="#64CCE3"/>
<path d="M52.942 38.7479C53.6692 38.7479 54.2588 38.1584 54.2588 37.4311C54.2588 36.7038 53.6692 36.1143 52.942 36.1143C52.2147 36.1143 51.6252 36.7038 51.6252 37.4311C51.6252 38.1584 52.2147 38.7479 52.942 38.7479Z" fill="#64CCE3"/>
<path d="M52.942 26.8961C53.6692 26.8961 54.2588 26.3065 54.2588 25.5793C54.2588 24.852 53.6692 24.2625 52.942 24.2625C52.2147 24.2625 51.6252 24.852 51.6252 25.5793C51.6252 26.3065 52.2147 26.8961 52.942 26.8961Z" fill="#64CCE3"/>
<path d="M52.942 15.1141C53.6692 15.1141 54.2588 14.5246 54.2588 13.7973C54.2588 13.0701 53.6692 12.4805 52.942 12.4805C52.2147 12.4805 51.6252 13.0701 51.6252 13.7973C51.6252 14.5246 52.2147 15.1141 52.942 15.1141Z" fill="#64CCE3"/>
<path d="M52.9427 3.26301C53.67 3.26301 54.2595 2.67345 54.2595 1.9462C54.2595 1.21895 53.67 0.629395 52.9427 0.629395C52.2155 0.629395 51.6259 1.21895 51.6259 1.9462C51.6259 2.67345 52.2155 3.26301 52.9427 3.26301Z" fill="#64CCE3"/>
<path d="M14.825 62.3118C15.5523 62.3118 16.1419 61.7222 16.1419 60.995C16.1419 60.2677 15.5523 59.6782 14.825 59.6782C14.0978 59.6782 13.5082 60.2677 13.5082 60.995C13.5082 61.7222 14.0978 62.3118 14.825 62.3118Z" fill="#64CCE3"/>
<path d="M14.825 50.5299C15.5523 50.5299 16.1419 49.9403 16.1419 49.213C16.1419 48.4858 15.5523 47.8962 14.825 47.8962C14.0978 47.8962 13.5082 48.4858 13.5082 49.213C13.5082 49.9403 14.0978 50.5299 14.825 50.5299Z" fill="#64CCE3"/>
<path d="M14.825 38.7479C15.5523 38.7479 16.1419 38.1584 16.1419 37.4311C16.1419 36.7038 15.5523 36.1143 14.825 36.1143C14.0978 36.1143 13.5082 36.7038 13.5082 37.4311C13.5082 38.1584 14.0978 38.7479 14.825 38.7479Z" fill="#64CCE3"/>
<path d="M14.825 26.8961C15.5523 26.8961 16.1419 26.3065 16.1419 25.5793C16.1419 24.852 15.5523 24.2625 14.825 24.2625C14.0978 24.2625 13.5082 24.852 13.5082 25.5793C13.5082 26.3065 14.0978 26.8961 14.825 26.8961Z" fill="#64CCE3"/>
<path d="M14.825 15.1141C15.5523 15.1141 16.1419 14.5246 16.1419 13.7973C16.1419 13.0701 15.5523 12.4805 14.825 12.4805C14.0978 12.4805 13.5082 13.0701 13.5082 13.7973C13.5082 14.5246 14.0978 15.1141 14.825 15.1141Z" fill="#64CCE3"/>
<path d="M14.8247 3.26301C15.5519 3.26301 16.1415 2.67345 16.1415 1.9462C16.1415 1.21895 15.5519 0.629395 14.8247 0.629395C14.0974 0.629395 13.5079 1.21895 13.5079 1.9462C13.5079 2.67345 14.0974 3.26301 14.8247 3.26301Z" fill="#64CCE3"/>
</svg>
