<svg width="23" height="20" viewBox="0 0 23 20" fill="none" xmlns="http://www.w3.org/2000/svg">
<path d="M21.6386 19.8607C21.8811 19.8607 22.0777 19.6641 22.0777 19.4216C22.0777 19.1791 21.8811 18.9825 21.6386 18.9825C21.3961 18.9825 21.1995 19.1791 21.1995 19.4216C21.1995 19.6641 21.3961 19.8607 21.6386 19.8607Z" fill="#DE6944"/>
<path d="M21.6386 16.0666C21.8811 16.0666 22.0777 15.87 22.0777 15.6275C22.0777 15.3851 21.8811 15.1885 21.6386 15.1885C21.3961 15.1885 21.1995 15.3851 21.1995 15.6275C21.1995 15.87 21.3961 16.0666 21.6386 16.0666Z" fill="#DE6944"/>
<path d="M21.6386 12.2744C21.8811 12.2744 22.0777 12.0779 22.0777 11.8354C22.0777 11.5929 21.8811 11.3963 21.6386 11.3963C21.3961 11.3963 21.1995 11.5929 21.1995 11.8354C21.1995 12.0779 21.3961 12.2744 21.6386 12.2744Z" fill="#DE6944"/>
<path d="M21.6386 8.51438C21.8811 8.51438 22.0777 8.3178 22.0777 8.0753C22.0777 7.83281 21.8811 7.63623 21.6386 7.63623C21.3961 7.63623 21.1995 7.83281 21.1995 8.0753C21.1995 8.3178 21.3961 8.51438 21.6386 8.51438Z" fill="#DE6944"/>
<path d="M21.6386 4.72037C21.8811 4.72037 22.0777 4.52379 22.0777 4.2813C22.0777 4.0388 21.8811 3.84222 21.6386 3.84222C21.3961 3.84222 21.1995 4.0388 21.1995 4.2813C21.1995 4.52379 21.3961 4.72037 21.6386 4.72037Z" fill="#DE6944"/>
<path d="M21.6381 0.959934C21.8806 0.959934 22.0772 0.763354 22.0772 0.520861C22.0772 0.278367 21.8806 0.0817871 21.6381 0.0817871C21.3956 0.0817871 21.199 0.278367 21.199 0.520861C21.199 0.763354 21.3956 0.959934 21.6381 0.959934Z" fill="#DE6944"/>
<path d="M17.5936 19.8607C17.8361 19.8607 18.0327 19.6641 18.0327 19.4216C18.0327 19.1791 17.8361 18.9825 17.5936 18.9825C17.3511 18.9825 17.1545 19.1791 17.1545 19.4216C17.1545 19.6641 17.3511 19.8607 17.5936 19.8607Z" fill="#DE6944"/>
<path d="M17.5936 16.0666C17.8361 16.0666 18.0327 15.87 18.0327 15.6275C18.0327 15.3851 17.8361 15.1885 17.5936 15.1885C17.3511 15.1885 17.1545 15.3851 17.1545 15.6275C17.1545 15.87 17.3511 16.0666 17.5936 16.0666Z" fill="#DE6944"/>
<path d="M17.5936 12.2744C17.8361 12.2744 18.0327 12.0779 18.0327 11.8354C18.0327 11.5929 17.8361 11.3963 17.5936 11.3963C17.3511 11.3963 17.1545 11.5929 17.1545 11.8354C17.1545 12.0779 17.3511 12.2744 17.5936 12.2744Z" fill="#DE6944"/>
<path d="M17.5936 8.51438C17.8361 8.51438 18.0327 8.3178 18.0327 8.0753C18.0327 7.83281 17.8361 7.63623 17.5936 7.63623C17.3511 7.63623 17.1545 7.83281 17.1545 8.0753C17.1545 8.3178 17.3511 8.51438 17.5936 8.51438Z" fill="#DE6944"/>
<path d="M17.5936 4.72037C17.8361 4.72037 18.0327 4.52379 18.0327 4.2813C18.0327 4.0388 17.8361 3.84222 17.5936 3.84222C17.3511 3.84222 17.1545 4.0388 17.1545 4.2813C17.1545 4.52379 17.3511 4.72037 17.5936 4.72037Z" fill="#DE6944"/>
<path d="M17.5931 0.959934C17.8356 0.959934 18.0322 0.763354 18.0322 0.520861C18.0322 0.278367 17.8356 0.0817871 17.5931 0.0817871C17.3506 0.0817871 17.1541 0.278367 17.1541 0.520861C17.1541 0.763354 17.3506 0.959934 17.5931 0.959934Z" fill="#DE6944"/>
<path d="M13.5212 19.8578C13.7637 19.8578 13.9602 19.6612 13.9602 19.4187C13.9602 19.1763 13.7637 18.9797 13.5212 18.9797C13.2787 18.9797 13.0821 19.1763 13.0821 19.4187C13.0821 19.6612 13.2787 19.8578 13.5212 19.8578Z" fill="#DE6944"/>
<path d="M13.5212 16.0666C13.7637 16.0666 13.9602 15.87 13.9602 15.6275C13.9602 15.3851 13.7637 15.1885 13.5212 15.1885C13.2787 15.1885 13.0821 15.3851 13.0821 15.6275C13.0821 15.87 13.2787 16.0666 13.5212 16.0666Z" fill="#DE6944"/>
<path d="M13.5212 12.2744C13.7637 12.2744 13.9602 12.0779 13.9602 11.8354C13.9602 11.5929 13.7637 11.3963 13.5212 11.3963C13.2787 11.3963 13.0821 11.5929 13.0821 11.8354C13.0821 12.0779 13.2787 12.2744 13.5212 12.2744Z" fill="#DE6944"/>
<path d="M13.5212 8.51438C13.7637 8.51438 13.9602 8.3178 13.9602 8.0753C13.9602 7.83281 13.7637 7.63623 13.5212 7.63623C13.2787 7.63623 13.0821 7.83281 13.0821 8.0753C13.0821 8.3178 13.2787 8.51438 13.5212 8.51438Z" fill="#DE6944"/>
<path d="M13.5212 4.72037C13.7637 4.72037 13.9602 4.52379 13.9602 4.2813C13.9602 4.0388 13.7637 3.84222 13.5212 3.84222C13.2787 3.84222 13.0821 4.0388 13.0821 4.2813C13.0821 4.52379 13.2787 4.72037 13.5212 4.72037Z" fill="#DE6944"/>
<path d="M13.5218 0.959934C13.7643 0.959934 13.9608 0.763354 13.9608 0.520861C13.9608 0.278367 13.7643 0.0817871 13.5218 0.0817871C13.2793 0.0817871 13.0827 0.278367 13.0827 0.520861C13.0827 0.763354 13.2793 0.959934 13.5218 0.959934Z" fill="#DE6944"/>
<path d="M9.44701 19.8607C9.6895 19.8607 9.88608 19.6641 9.88608 19.4216C9.88608 19.1791 9.6895 18.9825 9.44701 18.9825C9.20451 18.9825 9.00793 19.1791 9.00793 19.4216C9.00793 19.6641 9.20451 19.8607 9.44701 19.8607Z" fill="#DE6944"/>
<path d="M9.44701 16.0666C9.6895 16.0666 9.88608 15.87 9.88608 15.6275C9.88608 15.3851 9.6895 15.1885 9.44701 15.1885C9.20451 15.1885 9.00793 15.3851 9.00793 15.6275C9.00793 15.87 9.20451 16.0666 9.44701 16.0666Z" fill="#DE6944"/>
<path d="M9.44701 12.2744C9.6895 12.2744 9.88608 12.0779 9.88608 11.8354C9.88608 11.5929 9.6895 11.3963 9.44701 11.3963C9.20451 11.3963 9.00793 11.5929 9.00793 11.8354C9.00793 12.0779 9.20451 12.2744 9.44701 12.2744Z" fill="#DE6944"/>
<path d="M9.44701 8.51438C9.6895 8.51438 9.88608 8.3178 9.88608 8.0753C9.88608 7.83281 9.6895 7.63623 9.44701 7.63623C9.20451 7.63623 9.00793 7.83281 9.00793 8.0753C9.00793 8.3178 9.20451 8.51438 9.44701 8.51438Z" fill="#DE6944"/>
<path d="M9.44701 4.72037C9.6895 4.72037 9.88608 4.52379 9.88608 4.2813C9.88608 4.0388 9.6895 3.84222 9.44701 3.84222C9.20451 3.84222 9.00793 4.0388 9.00793 4.2813C9.00793 4.52379 9.20451 4.72037 9.44701 4.72037Z" fill="#DE6944"/>
<path d="M9.44673 0.959934C9.68923 0.959934 9.88581 0.763354 9.88581 0.520861C9.88581 0.278367 9.68923 0.0817871 9.44673 0.0817871C9.20424 0.0817871 9.00766 0.278367 9.00766 0.520861C9.00766 0.763354 9.20424 0.959934 9.44673 0.959934Z" fill="#DE6944"/>
<path d="M5.37093 19.8588C5.61342 19.8588 5.81 19.6622 5.81 19.4197C5.81 19.1772 5.61342 18.9807 5.37093 18.9807C5.12843 18.9807 4.93185 19.1772 4.93185 19.4197C4.93185 19.6622 5.12843 19.8588 5.37093 19.8588Z" fill="#DE6944"/>
<path d="M5.37093 16.0666C5.61342 16.0666 5.81 15.87 5.81 15.6275C5.81 15.3851 5.61342 15.1885 5.37093 15.1885C5.12843 15.1885 4.93185 15.3851 4.93185 15.6275C4.93185 15.87 5.12843 16.0666 5.37093 16.0666Z" fill="#DE6944"/>
<path d="M5.37093 12.2744C5.61342 12.2744 5.81 12.0779 5.81 11.8354C5.81 11.5929 5.61342 11.3963 5.37093 11.3963C5.12843 11.3963 4.93185 11.5929 4.93185 11.8354C4.93185 12.0779 5.12843 12.2744 5.37093 12.2744Z" fill="#DE6944"/>
<path d="M5.37093 8.51438C5.61342 8.51438 5.81 8.3178 5.81 8.0753C5.81 7.83281 5.61342 7.63623 5.37093 7.63623C5.12843 7.63623 4.93185 7.83281 4.93185 8.0753C4.93185 8.3178 5.12843 8.51438 5.37093 8.51438Z" fill="#DE6944"/>
<path d="M5.37093 4.72226C5.61342 4.72226 5.81 4.52568 5.81 4.28319C5.81 4.0407 5.61342 3.84412 5.37093 3.84412C5.12843 3.84412 4.93185 4.0407 4.93185 4.28319C4.93185 4.52568 5.12843 4.72226 5.37093 4.72226Z" fill="#DE6944"/>
<path d="M5.37143 0.959934C5.61393 0.959934 5.8105 0.763354 5.8105 0.520861C5.8105 0.278367 5.61393 0.0817871 5.37143 0.0817871C5.12894 0.0817871 4.93236 0.278367 4.93236 0.520861C4.93236 0.763354 5.12894 0.959934 5.37143 0.959934Z" fill="#DE6944"/>
<path d="M1.33025 19.8584C1.57274 19.8584 1.76932 19.6619 1.76932 19.4194C1.76932 19.1769 1.57274 18.9803 1.33025 18.9803C1.08775 18.9803 0.891174 19.1769 0.891174 19.4194C0.891174 19.6619 1.08775 19.8584 1.33025 19.8584Z" fill="#DE6944"/>
<path d="M1.33025 16.0663C1.57274 16.0663 1.76932 15.8697 1.76932 15.6272C1.76932 15.3848 1.57274 15.1882 1.33025 15.1882C1.08775 15.1882 0.891174 15.3848 0.891174 15.6272C0.891174 15.8697 1.08775 16.0663 1.33025 16.0663Z" fill="#DE6944"/>
<path d="M1.33025 12.2741C1.57274 12.2741 1.76932 12.0776 1.76932 11.8351C1.76932 11.5926 1.57274 11.396 1.33025 11.396C1.08775 11.396 0.891174 11.5926 0.891174 11.8351C0.891174 12.0776 1.08775 12.2741 1.33025 12.2741Z" fill="#DE6944"/>
<path d="M1.33025 8.51218C1.57274 8.51218 1.76932 8.3156 1.76932 8.07311C1.76932 7.83061 1.57274 7.63403 1.33025 7.63403C1.08775 7.63403 0.891174 7.83061 0.891174 8.07311C0.891174 8.3156 1.08775 8.51218 1.33025 8.51218Z" fill="#DE6944"/>
<path d="M1.33025 4.72001C1.57274 4.72001 1.76932 4.52342 1.76932 4.28093C1.76932 4.03844 1.57274 3.84186 1.33025 3.84186C1.08775 3.84186 0.891174 4.03844 0.891174 4.28093C0.891174 4.52342 1.08775 4.72001 1.33025 4.72001Z" fill="#DE6944"/>
<path d="M1.33025 0.959934C1.57274 0.959934 1.76932 0.763354 1.76932 0.520861C1.76932 0.278367 1.57274 0.0817871 1.33025 0.0817871C1.08775 0.0817871 0.891174 0.278367 0.891174 0.520861C0.891174 0.763354 1.08775 0.959934 1.33025 0.959934Z" fill="#DE6944"/>
</svg>
