<svg width="14" height="14" viewBox="0 0 14 14" fill="none" xmlns="http://www.w3.org/2000/svg">
<path fill-rule="evenodd" clip-rule="evenodd" d="M8.6625 4.66101C8.60082 4.66101 8.53915 4.64559 8.49289 4.61475C8.3387 4.52224 8.29244 4.32179 8.40038 4.18303L9.4026 2.51779C9.21758 2.2865 9.09422 2.00897 9.09422 1.70059C9.09422 1.00674 9.6493 0.45166 10.3432 0.45166C11.037 0.45166 11.5921 1.00674 11.5921 1.70059C11.5921 2.39444 11.037 2.94952 10.3432 2.94952C10.2044 2.94952 10.0656 2.91868 9.92684 2.87242L8.94003 4.50682C8.87836 4.59933 8.77043 4.66101 8.6625 4.66101ZM5.28623 4.4919L4.6078 3.98308C4.66947 3.82889 4.70031 3.6747 4.70031 3.50509C4.70031 2.81124 4.14523 2.25616 3.45138 2.25616C2.75753 2.25616 2.20245 2.81124 2.20245 3.50509C2.20245 4.19894 2.75753 4.75402 3.45138 4.75402C3.74434 4.75402 4.00646 4.64609 4.22232 4.4919L4.90075 5.01614C4.96243 5.0624 5.02411 5.07782 5.08578 5.07782C5.17829 5.07782 5.27081 5.03156 5.33248 4.95447C5.45583 4.80028 5.425 4.59983 5.28623 4.4919ZM9.27889 6.81952C9.27889 7.96913 8.34005 8.90107 7.18193 8.90107C6.0238 8.90107 5.08496 7.96913 5.08496 6.81952C5.08496 5.66992 6.0238 4.73798 7.18193 4.73798C8.34005 4.73798 9.27889 5.66992 9.27889 6.81952ZM12.732 6.03351C12.1461 6.03351 11.6681 6.4344 11.5293 6.95864H10.0337C9.86409 6.95864 9.7099 7.09741 9.7099 7.26702C9.7099 7.43663 9.84867 7.57539 10.0337 7.57539H11.5139C11.6527 8.11506 12.1461 8.50053 12.7166 8.50053C13.4104 8.50053 13.9655 7.94545 13.9655 7.2516C13.9655 6.55775 13.4258 6.03351 12.732 6.03351ZM2.32591 8.05325L4.2841 7.37482C4.45371 7.31315 4.63874 7.40566 4.68499 7.57527C4.73125 7.74488 4.65416 7.91448 4.48455 7.97616L2.58803 8.63917C2.58803 8.67001 2.59188 8.7047 2.59574 8.73939C2.59959 8.77408 2.60345 8.80878 2.60345 8.83961C2.60345 9.53346 2.04837 10.0885 1.35452 10.0885C0.66067 10.0885 0.105591 9.53346 0.105591 8.83961C0.105591 8.14577 0.66067 7.59069 1.35452 7.59069C1.75541 7.59069 2.09462 7.77571 2.32591 8.05325ZM8.07612 9.47207L8.44617 10.906C9.14002 10.9214 9.6951 11.4765 9.67968 12.155C9.67968 12.8488 9.1246 13.4039 8.43075 13.4039C7.7369 13.4039 7.18182 12.8488 7.18182 12.155C7.18182 11.6924 7.44394 11.2915 7.82942 11.0756L7.45936 9.62626C7.41311 9.45665 7.52104 9.28704 7.69065 9.24078C7.86025 9.19453 8.02986 9.30246 8.07612 9.47207Z" fill="#1943EF"/>
</svg>
